<!-- Generated by IcoMoon.io -->
<svg version="1.1" xmlns="http://www.w3.org/2000/svg" width="32" height="32" viewBox="0 0 32 32">
<title>glass_26</title>
<path fill="#407bff" d="M5.565 2.783l1.901 26.363v0.072h16.367l1.901-26.353v-0.082h-20.169zM23.16 28.479h-15.017l-1.426-19.747h0.784l1.289 17.403c0.008 0.092 0.049 0.177 0.115 0.24s0.153 0.098 0.244 0.099h0.030c0.047-0.003 0.093-0.016 0.136-0.037s0.080-0.051 0.111-0.087c0.031-0.036 0.055-0.078 0.070-0.124s0.021-0.094 0.017-0.141l-1.289-17.351h16.362l-1.426 19.747zM24.637 7.994h-16.468l-0.283-3.847c-0.009-0.094-0.052-0.181-0.122-0.244s-0.16-0.097-0.252-0.095c-0.095 0.009-0.183 0.055-0.245 0.129s-0.094 0.169-0.088 0.266l0.283 3.795h-0.794l-0.324-4.483h18.617l-0.324 4.478z"></path>
<path fill="#407bff" d="M11.359 12.384c0.236 0 0.467-0.071 0.663-0.204s0.349-0.322 0.439-0.543c0.090-0.221 0.114-0.465 0.068-0.699s-0.16-0.45-0.327-0.62c-0.167-0.169-0.38-0.285-0.611-0.331s-0.471-0.023-0.689 0.069c-0.218 0.092-0.404 0.247-0.536 0.446s-0.201 0.433-0.201 0.672c0 0.321 0.126 0.629 0.35 0.856s0.527 0.355 0.844 0.355zM11.359 10.697c0.093 0 0.184 0.028 0.261 0.080s0.138 0.127 0.173 0.214c0.036 0.087 0.045 0.183 0.027 0.276s-0.063 0.178-0.129 0.244c-0.066 0.067-0.15 0.112-0.241 0.131s-0.186 0.009-0.272-0.027c-0.086-0.036-0.159-0.097-0.211-0.176s-0.079-0.171-0.079-0.265c0-0.127 0.050-0.248 0.138-0.337s0.208-0.14 0.332-0.14z"></path>
<path fill="#407bff" d="M11.354 16.318c0.003 0.239 0.076 0.472 0.209 0.669s0.321 0.35 0.539 0.439 0.458 0.111 0.689 0.062c0.231-0.049 0.442-0.166 0.607-0.336s0.277-0.387 0.321-0.621 0.019-0.477-0.072-0.698c-0.091-0.22-0.245-0.408-0.442-0.54s-0.427-0.201-0.663-0.2c-0.158 0.001-0.313 0.033-0.459 0.095s-0.277 0.153-0.387 0.267-0.198 0.249-0.256 0.397c-0.059 0.148-0.088 0.307-0.086 0.467zM13.013 16.318c0 0.094-0.028 0.187-0.079 0.265s-0.125 0.14-0.211 0.176c-0.086 0.036-0.18 0.046-0.272 0.027s-0.175-0.064-0.241-0.131-0.111-0.152-0.129-0.244c-0.018-0.093-0.009-0.188 0.027-0.276s0.096-0.162 0.173-0.214 0.168-0.080 0.261-0.080c0.125 0 0.244 0.050 0.333 0.14s0.138 0.211 0.138 0.337z"></path>
<path fill="#407bff" d="M19.834 16.349c0.236 0 0.467-0.071 0.663-0.204s0.349-0.322 0.439-0.543c0.090-0.221 0.114-0.465 0.068-0.699s-0.16-0.45-0.327-0.62c-0.167-0.169-0.379-0.285-0.611-0.331s-0.471-0.023-0.689 0.069c-0.218 0.092-0.404 0.247-0.535 0.446s-0.201 0.433-0.201 0.672c0 0.321 0.126 0.629 0.349 0.856s0.527 0.355 0.844 0.355zM19.834 14.666c0.093 0 0.184 0.028 0.262 0.081s0.138 0.127 0.173 0.215c0.035 0.088 0.044 0.184 0.026 0.276s-0.064 0.178-0.13 0.244c-0.066 0.066-0.151 0.111-0.242 0.129s-0.186 0.008-0.272-0.029-0.159-0.099-0.21-0.178c-0.051-0.079-0.078-0.172-0.077-0.266 0.001-0.126 0.051-0.246 0.14-0.334s0.207-0.138 0.331-0.138z"></path>
<path fill="#407bff" d="M15.677 14.066c0.236 0 0.467-0.071 0.663-0.204s0.349-0.322 0.439-0.543c0.090-0.221 0.114-0.464 0.068-0.699s-0.16-0.45-0.327-0.62c-0.167-0.169-0.38-0.285-0.611-0.331s-0.471-0.023-0.689 0.069c-0.218 0.092-0.404 0.247-0.536 0.446s-0.201 0.433-0.201 0.672c0 0.321 0.126 0.629 0.35 0.856s0.527 0.354 0.844 0.354zM15.677 12.379c0.093 0 0.184 0.028 0.261 0.080s0.138 0.127 0.173 0.214c0.036 0.087 0.045 0.183 0.027 0.276s-0.063 0.177-0.129 0.244c-0.066 0.067-0.15 0.112-0.241 0.131s-0.186 0.009-0.272-0.027-0.159-0.097-0.211-0.176c-0.052-0.079-0.079-0.171-0.079-0.265-0.003-0.065 0.006-0.129 0.028-0.19s0.056-0.116 0.1-0.164c0.044-0.047 0.097-0.084 0.156-0.11s0.122-0.039 0.186-0.039v0.026z"></path>
<path fill="#407bff" d="M13.402 20.929c0.005 0.197 0.067 0.387 0.178 0.548s0.267 0.285 0.447 0.357c0.181 0.072 0.378 0.088 0.568 0.047s0.363-0.139 0.498-0.279c0.135-0.141 0.227-0.319 0.263-0.512s0.015-0.393-0.060-0.574c-0.075-0.181-0.202-0.336-0.363-0.445s-0.351-0.167-0.545-0.167c-0.264 0.007-0.514 0.118-0.699 0.309s-0.287 0.449-0.287 0.716zM14.388 20.662c0.052 0 0.103 0.016 0.146 0.045s0.077 0.071 0.097 0.12 0.025 0.102 0.015 0.154c-0.010 0.052-0.035 0.099-0.072 0.137s-0.084 0.063-0.135 0.073c-0.051 0.010-0.104 0.005-0.152-0.015s-0.089-0.054-0.118-0.098c-0.029-0.044-0.044-0.096-0.044-0.148 0-0.071 0.028-0.139 0.077-0.189s0.116-0.078 0.186-0.078z"></path>
<path fill="#407bff" d="M18.17 19.816c0.202 0.007 0.402-0.048 0.574-0.157s0.306-0.269 0.388-0.457c0.081-0.188 0.105-0.397 0.068-0.599s-0.133-0.388-0.275-0.534c-0.143-0.146-0.325-0.245-0.524-0.285s-0.405-0.018-0.591 0.063c-0.186 0.081-0.345 0.216-0.454 0.389s-0.166 0.375-0.161 0.58c0.006 0.262 0.111 0.511 0.292 0.697s0.426 0.295 0.684 0.304zM18.17 18.549c0.070 0 0.137 0.028 0.186 0.078s0.077 0.118 0.077 0.189c0 0.071-0.028 0.139-0.077 0.189s-0.116 0.078-0.186 0.078c-0.070 0-0.138-0.028-0.188-0.078s-0.079-0.118-0.080-0.189c0-0.035 0.007-0.071 0.020-0.103s0.033-0.062 0.058-0.087 0.055-0.044 0.087-0.057c0.032-0.013 0.067-0.019 0.102-0.019z"></path>
<path fill="#407bff" d="M20.253 11.538c0.2 0 0.395-0.060 0.562-0.173s0.296-0.273 0.372-0.46c0.077-0.187 0.097-0.394 0.058-0.593s-0.135-0.382-0.277-0.525c-0.141-0.143-0.322-0.241-0.518-0.281s-0.399-0.019-0.584 0.058c-0.185 0.078-0.343 0.209-0.454 0.378s-0.17 0.367-0.17 0.57c0 0.272 0.107 0.533 0.296 0.725s0.447 0.3 0.715 0.3zM20.253 10.271c0.039-0.011 0.080-0.013 0.12-0.006s0.078 0.024 0.11 0.049c0.032 0.025 0.059 0.057 0.077 0.094s0.028 0.078 0.028 0.119-0.009 0.082-0.028 0.119c-0.018 0.037-0.044 0.069-0.077 0.094s-0.070 0.042-0.11 0.049c-0.040 0.008-0.081 0.006-0.12-0.006-0.039 0.011-0.080 0.013-0.12 0.006s-0.078-0.024-0.11-0.049c-0.032-0.025-0.059-0.057-0.077-0.094s-0.028-0.078-0.028-0.119 0.009-0.082 0.028-0.119c0.018-0.037 0.044-0.069 0.077-0.094s0.070-0.042 0.11-0.049c0.040-0.008 0.081-0.006 0.12 0.006z"></path>
<path fill="#407bff" d="M10.369 27.191c-0.045 0.021-0.086 0.052-0.119 0.089s-0.059 0.082-0.074 0.13c-0.016 0.048-0.021 0.099-0.017 0.149s0.019 0.099 0.043 0.144c0.031 0.060 0.078 0.11 0.135 0.145s0.122 0.054 0.189 0.055c0.056 0.002 0.112-0.011 0.162-0.036 1.545-0.803 3.255-1.225 4.99-1.231 1.837 0.027 3.648 0.441 5.319 1.215 0.066 0.035 0.141 0.049 0.215 0.039s0.143-0.042 0.198-0.093c0.055-0.051 0.094-0.118 0.11-0.192s0.010-0.151-0.018-0.221c-0.036-0.091-0.105-0.164-0.192-0.205-1.769-0.821-3.687-1.258-5.633-1.282-1.845 0.002-3.664 0.444-5.309 1.292z"></path>
</svg>
