<!-- Generated by IcoMoon.io -->
<svg version="1.1" xmlns="http://www.w3.org/2000/svg" width="32" height="32" viewBox="0 0 32 32">
	<title>
		solid-right
	</title>
	<path d="M21.707 16.707c0.187-0.188 0.292-0.442 0.292-0.707s-0.105-0.519-0.292-0.707l-10-10c-0.092-0.098-0.202-0.177-0.325-0.232s-0.255-0.084-0.389-0.086c-0.134-0.002-0.268 0.022-0.392 0.073s-0.238 0.125-0.333 0.22c-0.095 0.095-0.17 0.208-0.22 0.333s-0.075 0.258-0.073 0.392c0.002 0.134 0.032 0.267 0.086 0.389s0.133 0.233 0.232 0.325l9.293 9.293-9.293 9.293c-0.098 0.091-0.177 0.202-0.232 0.325s-0.084 0.255-0.086 0.389c-0.002 0.134 0.022 0.268 0.073 0.392s0.125 0.238 0.22 0.333c0.095 0.095 0.208 0.17 0.333 0.22s0.258 0.075 0.392 0.073c0.134-0.002 0.267-0.032 0.389-0.086s0.233-0.134 0.325-0.232l10-10z">
	</path>
</svg>
