<svg width="12" height="7" viewBox="0 0 12 7" fill="none" xmlns="http://www.w3.org/2000/svg">
<path fill-rule="evenodd" clip-rule="evenodd" d="M6.35356 6.85332C6.25981 6.94696 6.13272 6.99955 6.00022 6.99955C5.86772 6.99955 5.74064 6.94696 5.64689 6.85332L0.64689 1.85332C0.55857 1.75854 0.510488 1.63318 0.512773 1.50364C0.515059 1.37411 0.567533 1.25052 0.659142 1.15891C0.750751 1.0673 0.874341 1.01483 1.00387 1.01254C1.13341 1.01025 1.25877 1.05834 1.35356 1.14666L6.00022 5.79332L10.6469 1.14666C10.6927 1.09753 10.7479 1.05813 10.8092 1.0308C10.8705 1.00347 10.9367 0.988781 11.0039 0.987596C11.071 0.986412 11.1377 0.998761 11.2 1.02391C11.2622 1.04906 11.3188 1.08649 11.3662 1.13396C11.4137 1.18144 11.4512 1.238 11.4763 1.30026C11.5015 1.36252 11.5138 1.4292 11.5126 1.49634C11.5114 1.56347 11.4967 1.62968 11.4694 1.69102C11.4421 1.75235 11.4027 1.80755 11.3536 1.85332L6.35356 6.85332Z" fill="#407BFF"/>
</svg>
