<svg width="18" height="21" viewBox="0 0 16 16" fill="none" xmlns="http://www.w3.org/2000/svg">
<path d="M10.5 6V3.5C10.5 3.10218 10.342 2.72064 10.0607 2.43934C9.77936 2.15804 9.39782 2 9 2H5C4.60218 2 4.22064 2.15804 3.93934 2.43934C3.65804 2.72064 3.5 3.10218 3.5 3.5V12.5C3.5 12.8978 3.65804 13.2794 3.93934 13.5607C4.22064 13.842 4.60218 14 5 14H9C9.39782 14 9.77936 13.842 10.0607 13.5607C10.342 13.2794 10.5 12.8978 10.5 12.5V10M12.5 10L14.5 8M14.5 8L12.5 6M14.5 8H6" stroke="#407BFF" stroke-linecap="round" stroke-linejoin="round"/>
</svg>
