<svg width="28" height="28" viewBox="0 0 28 28" fill="none" xmlns="http://www.w3.org/2000/svg">
<rect x="0.5" y="0.5" width="27" height="27" rx="13.5" stroke="#2F2F2F"/>
<path d="M17.75 8C17.75 8.99456 17.3549 9.94839 16.6516 10.6517C15.9484 11.3549 14.9945 11.75 14 11.75C13.0054 11.75 12.0516 11.3549 11.3483 10.6517C10.6451 9.94839 10.25 8.99456 10.25 8C10.25 7.00544 10.6451 6.05161 11.3483 5.34835C12.0516 4.64509 13.0054 4.25 14 4.25C14.9945 4.25 15.9484 4.64509 16.6516 5.34835C17.3549 6.05161 17.75 7.00544 17.75 8ZM6.50098 22.118C6.53311 20.1504 7.33731 18.2742 8.74015 16.894C10.143 15.5139 12.0321 14.7405 14 14.7405C15.9679 14.7405 17.857 15.5139 19.2598 16.894C20.6626 18.2742 21.4668 20.1504 21.499 22.118C19.1464 23.1968 16.5881 23.7535 14 23.75C11.324 23.75 8.78398 23.166 6.50098 22.118Z" stroke="#2F2F2F" stroke-linecap="round" stroke-linejoin="round"/>
</svg>
